<?xml version="1.0" encoding="utf-8"?>
<!-- Generator: Adobe Illustrator 16.0.0, SVG Export Plug-In . SVG Version: 6.00 Build 0)  -->
<!DOCTYPE svg PUBLIC "-//W3C//DTD SVG 1.1//EN" "http://www.w3.org/Graphics/SVG/1.1/DTD/svg11.dtd">
<svg version="1.1" id="Layer_1" xmlns="http://www.w3.org/2000/svg" xmlns:xlink="http://www.w3.org/1999/xlink" x="0px" y="0px"
	 width="595.279px" height="841.891px" viewBox="0 0 595.279 841.891" enable-background="new 0 0 595.279 841.891"
	 xml:space="preserve">
<path fill-opacity="0" stroke="#000000" stroke-width="0.24" d="M220.811,841.891V663.089H0v178.802l5.909-9.45h9.712h9.448h9.638
	h9.501h9.648h9.712h9.448h9.638h9.501h9.751h9.713h9.448h9.638h9.501h9.647h9.714h9.448h9.849h9.608h9.663v-13.227h-9.663h-9.608
	h-9.849h-9.448h-9.714h-9.647h-9.501h-9.638h-9.448h-9.713h-9.751h-9.501h-9.638h-9.448h-9.712h-9.648h-9.501h-9.638h-9.448H5.909
	v-10.565h9.712h9.448h9.638h9.501h9.648h9.712h9.448h9.638h9.501h9.751h9.713h9.448h9.638h9.501h9.647h9.714h9.448h9.849h9.608
	h9.663v-13.226h-9.663h-9.608h-9.849h-9.448h-9.714h-9.647h-9.501h-9.638h-9.448h-9.713h-9.751h-9.501h-9.638h-9.448h-9.712h-9.648
	h-9.501h-9.638h-9.448H5.909v-9.448h19.16h115.131h9.655h9.449l9.712-9.45h-19.162l-9.656,0.002l-9.615-0.002h-9.848h-18.829h-9.751
	h-9.501l-28.798-9.448h9.712h9.448h9.638h9.501h9.751h18.829h9.848h9.609h9.448v-9.447h-9.448h-38.286h-9.751h-9.501h-9.638h-9.448
	h-9.712v-9.448h9.712h9.448h9.638h9.501h9.751h38.286h9.448l28.824,2.456h9.395h9.502h9.75l-9.395-11.904h-9.858h-9.476h-9.368
	h-67.163h-9.698h-9.501h-9.638h-9.448h-9.712l9.712-29.271h9.448h9.638h9.501h9.751h9.713h9.448h9.638h9.501h9.647h9.714h9.448
	h9.849l9.608,18.37h9.663h13.228v-10.461h-13.228h-9.663v-10.47h9.663h13.228v-10.667h-13.228h-9.663h-9.608h-9.849h-9.448h-9.714
	h-9.647h-9.501h-9.638h-9.448h-9.713h-9.751h-9.501h-9.638h-9.448h-9.712v-10.47h9.712h9.448h9.638h9.501h9.751h9.713h9.448h9.638
	h9.501h9.647h9.714h9.448h9.849h9.608h9.663l-0.214-13.227h-9.449h-9.608h-9.849h-9.448h-9.714h-9.647h-9.501h-9.638h-9.448h-9.713
	h-9.751h-9.501h-9.638h-9.448h-9.712"/>
</svg>
